<svg xmlns="http://www.w3.org/2000/svg" viewBox="0 0 512 512">
  <defs>
    <linearGradient id="bg" x1="0%" y1="0%" x2="100%" y2="100%">
      <stop offset="0%" style="stop-color:#38bdf8"/>
      <stop offset="50%" style="stop-color:#3b82f6"/>
      <stop offset="100%" style="stop-color:#6366f1"/>
    </linearGradient>
  </defs>
  <!-- Background -->
  <rect width="512" height="512" rx="96" fill="url(#bg)"/>
  <!-- Coin/Money symbol -->
  <circle cx="256" cy="240" r="120" fill="white" opacity="0.2"/>
  <circle cx="256" cy="240" r="100" fill="white" opacity="0.3"/>
  <circle cx="256" cy="240" r="80" fill="white"/>
  <!-- Dollar sign stylized as split -->
  <path d="M256 180 L256 300" stroke="#3b82f6" stroke-width="16" stroke-linecap="round"/>
  <path d="M220 200 Q256 180 292 200 Q256 220 220 200" fill="#3b82f6"/>
  <path d="M220 260 Q256 280 292 260 Q256 240 220 260" fill="#3b82f6"/>
  <!-- Split arrows -->
  <path d="M180 380 L140 340 L180 340 L180 380 Z" fill="white" opacity="0.9"/>
  <path d="M332 380 L372 340 L332 340 L332 380 Z" fill="white" opacity="0.9"/>
  <path d="M200 360 L160 360" stroke="white" stroke-width="12" stroke-linecap="round"/>
  <path d="M312 360 L352 360" stroke="white" stroke-width="12" stroke-linecap="round"/>
  <!-- Persian text: دنگی -->
  <text x="256" y="440" text-anchor="middle" font-family="system-ui" font-size="48" font-weight="bold" fill="white">دنگی</text>
</svg>
